#N canvas 0 0 925 1132 10;
#X declare -lib xlab;
#X obj 4 3 declare -lib xlab;
#X obj 113 3 dac~ 1 2;
#X obj 7 439 saf.binaural~ -m;
#X obj 7 461 snake~ out 2, f 13;
#X obj 7 489 dac~ 1 2, f 13;
#X obj 7 280 saf.roomsim~ -m 4, f 37;
#X obj 36 130 loadbang;
#X obj 84 226 r positions;
#X obj 49 180 r receiver;
#X msg 49 202 receiver 1 \$1 \$2 0;
#X obj 20 326 r compass-yaw;
#X msg 109 408 rotation 1;
#X obj 109 388 loadbang;
#X msg 36 151 roomdim 10 10 10 \, source 1 5 0 0;
#X msg 20 384 yaw \$1;
#X obj 7 61 mar~ -loop Audios/escultura.wav 1;
#X connect 2 0 3 0;
#X connect 3 0 4 0;
#X connect 3 1 4 1;
#X connect 5 0 2 0;
#X connect 6 0 13 0;
#X connect 8 0 9 0;
#X connect 10 0 14 0;
#X connect 11 0 2 0;
#X connect 12 0 11 0;
#X connect 13 0 5 0;
#X connect 14 0 2 0;
#X connect 15 0 5 0;
