#N canvas 0 0 1112 1132 10; 
#X declare -lib xlab; 
#X obj 4 3 declare -lib xlab; 
#X obj 113 3 dac~ 1 2; 
#X obj 7 479 saf.binaural~ -m; 
#X obj 7 501 snake~ out 2, f 13; 
#X obj 7 529 dac~ 1 2, f 13; 
#X obj 7 450 saf.roomsim~ -m 4, f 37; 
#X obj 18 222 loadbang; 
#X msg 18 243 roomdim 10 10 10 \, source 1 5 0 0 \, source 2 -5 0 0 \, source 3 0 -5 0 \, source 4 -3 5 0; 
#N canvas 0 0 925 1132 source-1 0; 
#X obj 8 481 outlet~; 
#X obj 71 271 mar~; 
#X obj 8 4 array define source1; 
#X obj 8 107 r source1-file; 
#X obj 8 337 tabplay~ source1; 
#X obj 101 366 b; 
#X text 130 365 Loop do audio; 
#X text 101 270 Carrega o audio; 
#X obj 8 449 *~ 1, f 48; 
#X obj 136 158 s positions; 
#X msg 71 243 array \$1 source1; 
#X obj 136 62 r source1-pos; 
#X msg 136 134 source 1 \$1 \$2 0; 
#X obj 8 216 t b s, f 11; 
#X obj 293 357 r source1-gain; 
#X connect 3 0 13 0; 
#X connect 4 0 8 0; 
#X connect 4 1 5 0; 
#X connect 5 0 4 0; 
#X connect 8 0 0 0; 
#X connect 10 0 1 0; 
#X connect 11 0 12 0; 
#X connect 12 0 9 0; 
#X connect 13 0 4 0; 
#X connect 13 1 10 0; 
#X connect 14 0 8 1; 
#X restore 7 139 pd source-1; 
#X obj 7 162 snake~ in 6, f 72; 
#X obj 149 393 r positions; 
#X obj 45 296 r receiver; 
#X msg 45 318 receiver 1 \$1 \$2 0; 
#N canvas 0 0 925 1132 source-2 0; 
#X obj 8 481 outlet~; 
#X obj 35 294 mar~; 
#X obj 101 366 b; 
#X text 130 365 Loop do audio; 
#X text 65 293 Carrega o audio; 
#X obj 8 449 *~ 1, f 48; 
#X obj 136 132 s positions; 
#X obj 8 216 t b s b, f 38; 
#X obj 8 4 array define source2; 
#X obj 136 62 r source2-pos; 
#X obj 8 107 r source2-file; 
#X msg 35 246 array \$1 source2; 
#X obj 8 337 tabplay~ source2; 
#X msg 136 84 source 2 \$1 \$2 0; 
#X obj 293 357 r source2-gain; 
#X connect 2 0 12 0; 
#X connect 5 0 0 0; 
#X connect 7 0 12 0; 
#X connect 7 1 11 0; 
#X connect 9 0 13 0; 
#X connect 10 0 7 0; 
#X connect 11 0 1 0; 
#X connect 12 0 5 0; 
#X connect 12 1 2 0; 
#X connect 13 0 6 0; 
#X connect 14 0 5 1; 
#X restore 93 139 pd source-2; 
#N canvas 0 0 925 1132 source-3 0; 
#X obj 8 481 outlet~; 
#X obj 35 294 mar~; 
#X obj 101 366 b; 
#X text 130 365 Loop do audio; 
#X text 65 293 Carrega o audio; 
#X obj 8 449 *~ 1, f 48; 
#X obj 136 132 s positions; 
#X obj 8 216 t b s b, f 38; 
#X obj 8 4 array define source3; 
#X obj 136 62 r source3-pos; 
#X obj 8 107 r source3-file; 
#X msg 35 246 array \$1 source3; 
#X obj 8 337 tabplay~ source3; 
#X msg 136 84 source 3 \$1 \$2 0; 
#X obj 293 357 r source3-gain; 
#X connect 2 0 12 0; 
#X connect 5 0 0 0; 
#X connect 7 0 12 0; 
#X connect 7 1 11 0; 
#X connect 9 0 13 0; 
#X connect 10 0 7 0; 
#X connect 11 0 1 0; 
#X connect 12 0 5 0; 
#X connect 12 1 2 0; 
#X connect 13 0 6 0; 
#X connect 14 0 5 1; 
#X restore 178 138 pd source-3; 
#N canvas 0 0 925 1132 source-4 0; 
#X obj 8 481 outlet~; 
#X obj 35 294 mar~; 
#X obj 101 366 b; 
#X text 130 365 Loop do audio; 
#X text 65 293 Carrega o audio; 
#X obj 8 449 *~ 1, f 48; 
#X obj 136 132 s positions; 
#X obj 8 216 t b s b, f 38; 
#X obj 8 4 array define source4; 
#X obj 136 62 r source4-pos; 
#X obj 8 107 r source4-file; 
#X msg 35 246 array \$1 source4; 
#X obj 8 337 tabplay~ source4; 
#X msg 136 84 source 4 \$1 \$2 0; 
#X obj 293 357 r source4-gain; 
#X connect 2 0 12 0; 
#X connect 5 0 0 0; 
#X connect 7 0 12 0; 
#X connect 7 1 11 0; 
#X connect 9 0 13 0; 
#X connect 10 0 7 0; 
#X connect 11 0 1 0; 
#X connect 12 0 5 0; 
#X connect 12 1 2 0; 
#X connect 13 0 6 0; 
#X connect 14 0 5 1; 
#X restore 264 138 pd source-4; 
#N canvas 0 0 925 1132 source-5 0; 
#X obj 8 481 outlet~; 
#X obj 35 294 mar~; 
#X obj 101 366 b; 
#X text 130 365 Loop do audio; 
#X text 65 293 Carrega o audio; 
#X obj 8 449 *~ 1, f 48; 
#X obj 136 132 s positions; 
#X obj 8 216 t b s b, f 38; 
#X obj 136 62 r source5-pos; 
#X obj 8 4 array define source5; 
#X obj 8 107 r source5-file; 
#X msg 35 246 array \$1 source5; 
#X obj 8 337 tabplay~ source5; 
#X msg 136 84 source 5 \$1 \$2 0; 
#X obj 293 357 r source5-gain; 
#X connect 2 0 12 0; 
#X connect 5 0 0 0; 
#X connect 7 0 12 0; 
#X connect 7 1 11 0; 
#X connect 8 0 13 0; 
#X connect 10 0 7 0; 
#X connect 11 0 1 0; 
#X connect 12 0 5 0; 
#X connect 12 1 2 0; 
#X connect 13 0 6 0; 
#X connect 14 0 5 1; 
#X restore 350 137 pd source-5; 
#N canvas 0 0 925 1132 source-6 1; 
#X obj 8 481 outlet~; 
#X obj 35 294 mar~; 
#X obj 101 366 b; 
#X text 130 365 Loop do audio; 
#X text 65 293 Carrega o audio; 
#X obj 136 132 s positions; 
#X obj 8 216 t b s b, f 38; 
#X obj 136 62 r source6-pos; 
#X msg 136 84 source 6 \$1 \$2 0; 
#X obj 8 4 array define source6; 
#X msg 35 246 array \$1 source6; 
#X obj 8 107 r source6-file; 
#X obj 8 337 tabplay~ source6; 
#X obj 293 357 r source6-gain; 
#X msg 293 379 \$1 10; 
#X obj 293 401 line~; 
#X obj 8 449 *~, f 48; 
#X connect 2 0 12 0; 
#X connect 6 0 12 0; 
#X connect 6 1 10 0; 
#X connect 7 0 8 0; 
#X connect 8 0 5 0; 
#X connect 10 0 1 0; 
#X connect 11 0 6 0; 
#X connect 12 0 16 0; 
#X connect 12 1 2 0; 
#X connect 13 0 14 0; 
#X connect 14 0 15 0; 
#X connect 15 0 16 1; 
#X connect 16 0 0 0; 
#X restore 436 136 pd source-6; 
#X connect 2 0 3 0; 
#X connect 3 0 4 0; 
#X connect 3 1 4 1; 
#X connect 5 0 2 0; 
#X connect 6 0 7 0; 
#X connect 7 0 5 0; 
#X connect 8 0 9 0; 
#X connect 9 0 5 0; 
#X connect 10 0 5 0; 
#X connect 11 0 12 0; 
#X connect 12 0 5 0; 
#X connect 13 0 9 1; 
#X connect 14 0 9 2; 
#X connect 15 0 9 3; 
#X connect 16 0 9 4; 
#X connect 17 0 9 5; 
